<?xml version="1.0" encoding="utf-8"?>
<!-- Generator: Adobe Illustrator 21.0.2, SVG Export Plug-In . SVG Version: 6.00 Build 0)  -->
<svg version="1.1" id="레이어_1" xmlns="http://www.w3.org/2000/svg" xmlns:xlink="http://www.w3.org/1999/xlink" x="0px"
	 y="0px" viewBox="0 0 56.5 70.6" style="enable-background:new 0 0 56.5 70.6;" xml:space="preserve">
<g>
	<path d="M13.3,20.7c0.4,0,0.8-0.1,1.1-0.4L26.8,7.9V67c0,0.8,0.7,1.5,1.5,1.5s1.5-0.7,1.5-1.5V7.9l12.3,12.3c0.6,0.6,1.5,0.6,2.1,0
		c0.6-0.6,0.6-1.5,0-2.1L29.3,3.2l0,0l-1.1-1.1l-1,1.1l0,0l-15,14.9c-0.6,0.6-0.6,1.5,0,2.1C12.5,20.5,13,20.7,13.3,20.7z"/>
</g>
</svg>
